<svg xmlns="http://www.w3.org/2000/svg" viewBox="0 0 512 512"><path fill="#69c" fill-rule="evenodd" d="M453 256c-17.673 0-32 16.118-32 36s14.327 36 32 36c17.673 0 32-16.118 32-36s-14.327-36-32-36zm0 20c-6.627 0-12 7.163-12 16s5.373 16 12 16 12-7.163 12-16-5.373-16-12-16zm-68-20c-17.673 0-32 16.118-32 36s14.327 36 32 36c17.673 0 32-16.118 32-36s-14.327-36-32-36zm0 20c-6.627 0-12 7.163-12 16s5.373 16 12 16 12-7.163 12-16-5.373-16-12-16zm-80 32v19h44.99l3.01-19h-28v-51h-20zm-33.752-51.996c-11.58.248-22.73 6.088-29.412 16.346-9.72 14.92-7.072 34.704 6.23 46.543 13.303 11.838 33.263 12.171 46.954.785V283h-24.487L268 299h10v7.836a15.947 15.947 0 0 1-6 1.164c-8.837 0-16-7.163-16-16s7.163-16 16-16c2.368 0 4.615.515 6.637 1.438l8.293-18.196a35.895 35.895 0 0 0-15.682-3.238zM206 257h22v70h-22zm-55.752-.996c-11.58.248-22.73 6.088-29.412 16.346-9.72 14.92-7.072 34.704 6.23 46.543 13.303 11.838 33.263 12.171 46.954.785V283h-24.487L147 299h10v7.836a15.947 15.947 0 0 1-6 1.164c-8.837 0-16-7.163-16-16s7.163-16 16-16c2.368 0 4.615.515 6.637 1.438l8.293-18.196a35.895 35.895 0 0 0-15.682-3.238zM85 257h22v70H85ZM224 80c-79.529 0-144 64.471-144 144h208.996c0-35.346 28.654-64 64-64h.035C329.468 112.585 280.54 80 224 80Zm16 54c-9.941 0-18 8.059-18 18s8.059 18 18 18 18-8.059 18-18-8.059-18-18-18zM27 257v70h27.125c12.703 0 23-10.297 23-23 0-7.353-3.45-13.899-8.82-18.11.453-1.88.695-3.854.695-5.89 0-12.703-9.402-23-21-23Zm21 14a5 5 0 1 0 0 10 5 5 0 0 0 0-10z"/><path fill="#f5c83d" fill-rule="evenodd" d="M390.46 360.004a21.002 21.002 0 0 0-16.736 34.271L363 405a27.001 27.001 0 1 0 44.533-20.533L411 381a21 21 0 0 0-20.54-20.996zm-.606 13.498A4.5 4.5 0 0 0 390 382.5l4.346-3.336a4.5 4.5 0 0 0-4.492-5.662zm-210.188 47.132a12 12 0 0 0 16.669 0L199 431h19l-18-70h-24l-18 70h19zM194.114 412h-12.228L188 388.223ZM224 361v70h17v-29.166L251 431h18l10-29.166V431h17v-70h-19l-17 49.584L243 361h-16zm83 0v70h49.148L359 413h-32v-9h26v-18h-26v-7h28v-18h-28zm-176.752-.996c-11.58.248-22.73 6.088-29.412 16.346-9.72 14.92-7.072 34.704 6.23 46.543 13.303 11.838 33.263 12.171 46.954.785V387h-24.487L127 403h10v7.836a15.947 15.947 0 0 1-6 1.164c-8.837 0-16-7.163-16-16s7.163-16 16-16c2.368 0 4.615.515 6.637 1.438l8.293-18.196a35.895 35.895 0 0 0-15.682-3.238zM304 224a64 64 0 0 1 64-64 64 64 0 0 1 64 64z"/></svg>